# Blender v2.66 (sub 0) OBJ File: ''
# www.blender.org
mtllib softcube.mtl
o Cube_Cube.001
v -1.000000 -1.000000 1.000000
v -1.000000 -1.000000 -1.000000
v 1.000000 -1.000000 -1.000000
v 1.000000 -1.000000 1.000000
v -1.000000 1.000000 1.000000
v -1.000000 1.000000 -1.000000
v 1.000000 1.000000 -1.000000
v 1.000000 1.000000 1.000000
v -1.000000 1.000000 0.000000
v -1.000000 -1.000000 0.000000
v 1.000000 1.000000 0.000000
v 1.000000 -1.000000 0.000000
v 1.000000 0.500000 0.000000
v 0.000000 0.500000 -1.000000
v -1.000000 0.000000 -1.000000
v -1.000000 0.000000 1.000000
v -1.000000 -1.000000 -0.500000
v 1.000000 1.000000 -0.500000
v -0.500000 -0.500000 -1.000000
v -0.500000 -1.000000 -0.500000
v 1.000000 1.000000 0.500000
v -1.000000 -1.000000 0.500000
v -1.000000 1.000000 -0.500000
v 1.000000 -1.000000 -0.500000
v 0.000000 1.000000 0.000000
v 0.000000 -1.000000 0.000000
v 0.000000 -1.000000 1.000000
v 0.000000 1.000000 1.000000
v 0.000000 -1.000000 -1.000000
v 0.000000 1.000000 -1.000000
v 0.000000 -1.000000 0.500000
v 0.000000 1.000000 0.500000
v -0.500000 0.500000 -1.000000
v -0.500000 0.500000 1.000000
v -1.000000 0.000000 0.500000
v 1.000000 0.000000 0.500000
v 1.000000 0.000000 -1.000000
v 1.000000 0.000000 1.000000
v 1.000000 -1.000000 0.500000
v -1.000000 1.000000 0.500000
v -1.000000 0.500000 0.000000
v 0.000000 0.500000 1.000000
v 0.000000 0.000000 -1.000000
v 0.000000 0.000000 1.000000
v 1.000000 0.000000 0.000000
v -1.000000 0.000000 0.000000
v -1.000000 0.500000 1.000000
v 1.000000 0.500000 1.000000
v -1.000000 0.500000 -1.000000
v 1.000000 0.500000 -1.000000
v 1.000000 -0.500000 0.000000
v 0.000000 -0.500000 1.000000
v 0.000000 -0.500000 -1.000000
v -1.000000 -0.500000 1.000000
v -0.500000 0.000000 -1.000000
v -0.500000 0.000000 1.000000
v -0.500000 1.000000 -1.000000
v -0.500000 -1.000000 1.000000
v 1.000000 -0.500000 0.500000
v -1.000000 -0.500000 0.500000
v -1.000000 0.500000 0.500000
v 1.000000 0.500000 0.500000
v -1.000000 -0.500000 -1.000000
v 1.000000 -0.500000 -1.000000
v 1.000000 -0.500000 1.000000
v -1.000000 -0.500000 0.000000
v 0.500000 1.000000 0.000000
v 0.500000 -1.000000 0.000000
v 0.500000 -1.000000 1.000000
v 0.500000 1.000000 -1.000000
v 0.500000 -1.000000 -1.000000
v 0.500000 1.000000 1.000000
v 0.500000 0.000000 -1.000000
v 0.500000 0.000000 1.000000
v 0.500000 -1.000000 0.500000
v 0.500000 -0.500000 -1.000000
v 0.500000 -1.000000 -0.500000
v 0.500000 1.000000 0.500000
v -0.500000 -1.000000 0.500000
v -0.500000 1.000000 -0.500000
v -0.500000 -0.500000 1.000000
v -0.500000 1.000000 0.500000
v -1.000000 -0.500000 -0.500000
v 1.000000 -0.500000 -0.500000
v 1.000000 0.500000 -0.500000
v -1.000000 0.500000 -0.500000
v 1.000000 0.000000 -0.500000
v -1.000000 0.000000 -0.500000
v 0.000000 -1.000000 -0.500000
v 0.000000 1.000000 -0.500000
v -0.500000 -1.000000 0.000000
v -0.500000 1.000000 0.000000
v -0.500000 1.000000 1.000000
v -0.500000 -1.000000 -1.000000
v 0.500000 -0.500000 1.000000
v 0.500000 0.500000 1.000000
v 0.500000 1.000000 -0.500000
v 0.500000 0.500000 -1.000000
vn -1.000000 0.000000 0.000000
vn 0.000000 0.000000 -1.000000
vn 1.000000 -0.000000 0.000000
vn 0.000000 0.000000 1.000000
vn 0.000000 -1.000000 0.000000
vn 0.000000 1.000000 0.000000
usemtl Material.001
s off
f 83//1 63//1 17//1
f 76//2 64//2 3//2
f 59//3 65//3 4//3
f 81//4 54//4 1//4
f 77//5 71//5 3//5
f 80//6 57//6 6//6
f 60//1 66//1 22//1
f 84//3 51//3 12//3
f 75//5 68//5 12//5
f 82//6 92//6 9//6
f 85//3 13//3 45//3
f 79//5 91//5 26//5
f 78//6 67//6 25//6
f 95//4 52//4 27//4
f 19//2 53//2 29//2
f 20//5 94//5 29//5
f 97//6 70//6 30//6
f 23//1 6//1 86//1
f 74//4 44//4 52//4
f 96//4 42//4 44//4
f 61//1 41//1 35//1
f 86//1 49//1 88//1
f 62//3 48//3 38//3
f 98//2 50//2 37//2
f 34//4 47//4 16//4
f 33//2 14//2 43//2
f 15//2 55//2 63//2
f 72//4 28//4 42//4
f 69//5 75//5 39//5
f 18//3 11//3 13//3
f 21//3 8//3 48//3
f 87//3 45//3 51//3
f 72//6 78//6 32//6
f 8//6 21//6 78//6
f 93//4 5//4 47//4
f 57//2 30//2 14//2
f 73//2 37//2 64//2
f 40//1 9//1 61//1
f 55//2 43//2 53//2
f 70//2 7//2 50//2
f 56//4 16//4 54//4
f 47//1 61//1 16//1
f 88//1 15//1 83//1
f 66//1 83//1 10//1
f 5//1 40//1 47//1
f 35//1 46//1 60//1
f 58//5 79//5 31//5
f 36//3 38//3 65//3
f 51//3 59//3 39//3
f 54//1 60//1 1//1
f 11//3 21//3 62//3
f 50//3 85//3 87//3
f 16//1 35//1 54//1
f 93//6 82//6 40//6
f 45//3 36//3 59//3
f 13//3 62//3 36//3
f 91//5 20//5 89//5
f 1//5 22//5 79//5
f 64//3 84//3 24//3
f 9//1 23//1 41//1
f 10//5 17//5 20//5
f 25//6 90//6 80//6
f 67//6 97//6 90//6
f 32//6 25//6 92//6
f 7//3 18//3 85//3
f 41//1 86//1 46//1
f 89//5 29//5 71//5
f 46//1 88//1 66//1
f 6//2 57//2 49//2
f 28//4 93//4 34//4
f 37//3 87//3 84//3
f 42//4 34//4 56//4
f 92//6 80//6 23//6
f 68//5 77//5 24//5
f 90//6 30//6 57//6
f 63//2 19//2 2//2
f 49//2 33//2 15//2
f 28//6 32//6 82//6
f 22//5 10//5 91//5
f 44//4 56//4 81//4
f 52//4 81//4 58//4
f 17//5 2//5 94//5
f 53//2 76//2 71//2
f 21//6 11//6 67//6
f 48//4 96//4 74//4
f 14//2 98//2 73//2
f 11//6 18//6 97//6
f 65//4 95//4 69//4
f 43//2 73//2 76//2
f 26//5 89//5 77//5
f 27//5 31//5 75//5
f 31//5 26//5 68//5
f 8//4 72//4 96//4
f 38//4 74//4 95//4
f 18//6 7//6 70//6
f 30//2 70//2 98//2
f 63//1 2//1 17//1
f 71//2 76//2 3//2
f 39//3 59//3 4//3
f 58//4 81//4 1//4
f 24//5 77//5 3//5
f 23//6 80//6 6//6
f 66//1 10//1 22//1
f 24//3 84//3 12//3
f 39//5 75//5 12//5
f 40//6 82//6 9//6
f 87//3 85//3 45//3
f 31//5 79//5 26//5
f 32//6 78//6 25//6
f 69//4 95//4 27//4
f 94//2 19//2 29//2
f 89//5 20//5 29//5
f 90//6 97//6 30//6
f 6//1 49//1 86//1
f 95//4 74//4 52//4
f 74//4 96//4 44//4
f 41//1 46//1 35//1
f 49//1 15//1 88//1
f 36//3 62//3 38//3
f 73//2 98//2 37//2
f 56//4 34//4 16//4
f 55//2 33//2 43//2
f 55//2 19//2 63//2
f 96//4 72//4 42//4
f 4//5 69//5 39//5
f 85//3 18//3 13//3
f 62//3 21//3 48//3
f 84//3 87//3 51//3
f 28//6 72//6 32//6
f 72//6 8//6 78//6
f 34//4 93//4 47//4
f 33//2 57//2 14//2
f 76//2 73//2 64//2
f 9//1 41//1 61//1
f 19//2 55//2 53//2
f 98//2 70//2 50//2
f 81//4 56//4 54//4
f 61//1 35//1 16//1
f 15//1 63//1 83//1
f 83//1 17//1 10//1
f 40//1 61//1 47//1
f 46//1 66//1 60//1
f 27//5 58//5 31//5
f 59//3 36//3 65//3
f 12//3 51//3 39//3
f 60//1 22//1 1//1
f 13//3 11//3 62//3
f 37//3 50//3 87//3
f 35//1 60//1 54//1
f 5//6 93//6 40//6
f 51//3 45//3 59//3
f 45//3 13//3 36//3
f 26//5 91//5 89//5
f 58//5 1//5 79//5
f 3//3 64//3 24//3
f 23//1 86//1 41//1
f 91//5 10//5 20//5
f 92//6 25//6 80//6
f 25//6 67//6 90//6
f 82//6 32//6 92//6
f 50//3 7//3 85//3
f 86//1 88//1 46//1
f 77//5 89//5 71//5
f 88//1 83//1 66//1
f 57//2 33//2 49//2
f 42//4 28//4 34//4
f 64//3 37//3 84//3
f 44//4 42//4 56//4
f 9//6 92//6 23//6
f 12//5 68//5 24//5
f 80//6 90//6 57//6
f 19//2 94//2 2//2
f 33//2 55//2 15//2
f 93//6 28//6 82//6
f 79//5 22//5 91//5
f 52//4 44//4 81//4
f 27//4 52//4 58//4
f 20//5 17//5 94//5
f 29//2 53//2 71//2
f 78//6 21//6 67//6
f 38//4 48//4 74//4
f 43//2 14//2 73//2
f 67//6 11//6 97//6
f 4//4 65//4 69//4
f 53//2 43//2 76//2
f 68//5 26//5 77//5
f 69//5 27//5 75//5
f 75//5 31//5 68//5
f 48//4 8//4 96//4
f 65//4 38//4 95//4
f 97//6 18//6 70//6
f 14//2 30//2 98//2
